# AST/ASF file generated using VICON BodyLanguage
# -----------------------------------------------
:version 1.10
:name VICON
:units
  mass 1.0
  length 0.45
  angle deg
:documentation
   .ast/.asf automatically generated from VICON data using
   VICON BodyBuilder and BodyLanguage model FoxedUp or BRILLIANT.MOD
:root
   order TX TY TZ RX RY RZ
   axis XYZ
   position 0 0 0  
   orientation 0 0 0 
:bonedata
  begin
     id 1 
     name lhipjoint
     direction 0.535335 -0.74333 0.401095 
     length 2.04549 
     axis 0 0 0  XYZ
  end
  begin
     id 2 
     name lfemur
     direction 0.34202 -0.939693 0  
     length 6.95643  
     axis 0 0 20  XYZ
    dof rx ry rz
    limits (-160.0 20.0)
           (-70.0 70.0)
           (-60.0 70.0)
  end
  begin
     id 3 
     name ltibia
     direction 0.34192 -0.939729 0   
     length 5.55969   
     axis 0 0 20   XYZ
    dof rx
    limits (-10.0 170.0)
  end
  begin
     id 4 
     name lfoot
     direction 0.216943 -0.596046 0.773088   
     length 2.27918   
     axis -90 7.62852e-016 20   XYZ
    dof rx rz
    limits (-45.0 90.0)
           (-70.0 20.0)
  end
  begin
     id 5 
     name ltoes
     direction 1.53519e-011 -4.21748e-011 1   
     length 1.05562   
     axis -90 7.62852e-016 20   XYZ
    dof rx
    limits (-90.0 20.0)
  end
  begin
     id 6 
     name rhipjoint
     direction -0.576368 -0.719173 0.38806   
     length 2.1142  
     axis 0 0 0  XYZ 
  end
  begin
     id 7 
     name rfemur
     direction -0.34202 -0.939693 0   
     length 7.07928   
     axis 0 0 -20   XYZ
    dof rx ry rz
    limits (-160.0 20.0)
           (-70.0 70.0)
           (-70.0 60.0)
  end
  begin
     id 8 
     name rtibia
     direction -0.34202 -0.939693 0   
     length 5.79974   
     axis 0 0 -20   XYZ
    dof rx
    limits (-10.0 170.0)
 end
 begin
     id 9 
     name rfoot
     direction -0.189288 -0.520065 0.832888   
     length 2.42173  
     axis -90 -7.62852e-016 -20   XYZ
    dof rx rz
    limits (-45.0 90.0)
           (-20.0 70.0)
  end
  begin
     id 10 
     name rtoes
     direction -1.53574e-011 -4.21658e-011 1   
     length 1.14469   
     axis -90 -7.62852e-016 -20   XYZ
    dof rx
    limits (-90.0 20.0)
  end
  begin
     id 11 
     name lowerback
     direction -0.00135702 0.993803 0.111144   
     length 1.91308   
     axis 0 0 0   XYZ
    dof rx ry rz
    limits (-20.0 45.0)
           (-30.0 30.0)
           (-30.0 30.0)
  end
  begin
     id 12 
     name upperback
     direction -0.0056745 0.999813 0.0184631   
     length 1.9212   
     axis 0 0 0   XYZ
    dof rx ry rz
    limits (-20.0 45.0)
           (-30.0 30.0)
           (-30.0 30.0)
  end
  begin
     id 13 
     name thorax
     direction -0.00733434 0.999426 -0.0330788   
     length 1.94196   
     axis 0 0 0   XYZ
    dof rx ry rz
    limits (-20.0 45.0)
           (-30.0 30.0)
           (-30.0 30.0)
  end
  begin
     id 14 
     name lowerneck
     direction 0.0563074 0.996944 -0.0541571   
     length 2.34257   
     axis 0 0 0   XYZ
    dof rx ry rz
    limits (-20.0 45.0)
           (-30.0 30.0)
           (-30.0 30.0)
  end
  begin
     id 15 
     name upperneck
     direction -0.0544519 0.976166 -0.210085   
     length 2.32506   
     axis 0 0 0   XYZ
    dof rx ry rz
    limits (-20.0 45.0)
           (-30.0 30.0)
           (-30.0 30.0)
  end
  begin
     id 16
     name head
     direction -0.0226035 0.997615 -0.0652205  
     length 2.3648  
     axis 0 0 0   XYZ
    dof rx ry rz
    limits (-20.0 45.0)
           (-30.0 30.0)
           (-30.0 30.0)
  end
  begin
     id 17 
     name lclavicle
     direction 0.92109 0.381297 -0.0787716  
     length 4.0487  
     axis 0 0 0   XYZ
    dof ry rz
    limits (-20.0 10.0)
           (0.0 20.0)
  end
  begin
     id 18 
     name lhumerus
     direction 1 -4.48986e-011 3.56724e-027   
     length 4.94991   
     axis 180 -30 -90   XYZ
    dof rx ry rz
    limits (-60.0 90.0)
           (-90.0 90.0)
           (-90.0 90.0)
  end
  begin
     id 19
     name lradius
     direction 1 -4.48981e-011 8.62147e-027   
     length 2.7606   
     axis 180 -30 -90   XYZ
    dof rx
    limits (-10.0 170.0)
  end
  begin
     id 20
     name lwrist
     direction 1 -4.48989e-011 1.59799e-026   
     length 1.3803   
     axis -1.17785e-014 90 90   XYZ
    dof ry
    limits (-180.0 0.0)
 end
  begin
     id 21 
     name lhand
     direction 1 -4.48896e-011 3.19599e-026   
     length 0.843936   
     axis -2.03931e-014 90 90   XYZ
    dof rx rz
    limits (-90.0 90.0)
           (-45.0 45.0)
  end
  begin
     id 22 
     name lfingers
     direction 1 -4.48887e-011 6.39197e-026   
     length 0.680403   
     axis -4.07862e-014 90 90   XYZ
    dof rx
    limits (0.0 90.0)
  end
  begin
     id 23
     name lthumb
     direction 0.707107 -6.348e-011 0.707107   
     length 0.976926   
     axis -90 45 2.85299e-015   XYZ
    dof rx rz
    limits (-45.0 45.0)
           (-45.0 45.0)
  end
  begin
     id 24 
     name rclavicle
     direction -0.951104 0.307692 -0.026953   
     length 4.21801  
     axis 0 0 0   XYZ 
    dof ry rz
    limits (-10.0 20.0)
           (-20.0 0.0)
  end
  begin
     id 25 
     name rhumerus
     direction -1 -4.4896e-011 -1.8171e-018  
     length 4.32982   
     axis 180 30 90   XYZ
    dof rx ry rz
    limits (-90.0 60.0)
           (-90.0 90.0)
           (-90.0 90.0)
  end
  begin
     id 26 
     name rradius
     direction -1 -4.48959e-011 8.25165e-027   
     length 3.20057   
     axis 180 30 90   XYZ
    dof rx
    limits (-10.0 170.0)
  end
  begin
     id 27 
     name rwrist
     direction -1 -4.48997e-011 1.59799e-026   
     length 1.60029   
     axis -1.17785e-014 -90 -90   XYZ
    dof ry
    limits (-180.0 0.0)
  end
  begin
     id 28
     name rhand
     direction -1 -4.49023e-011 3.19599e-026   
     length 0.960433   
     axis -2.03931e-014 -90 -90   XYZ
    dof rx rz
    limits (-90.0 90.0)
           (-45.0 45.0)
  end
  begin
     id 29
     name rfingers
     direction -1 -4.48802e-011 6.39197e-026   
     length 0.774326   
     axis -4.07862e-014 -90 -90   XYZ
    dof rx
    limits (0.0 90.0)
  end
  begin
     id 30
     name rthumb
     direction -0.707107 -6.34876e-011 0.707107   
     length 1.11178   
     axis -90 -45 -2.85299e-015   XYZ
    dof rx rz
    limits (-45.0 45.0)
           (-45.0 45.0)
  end
:hierarchy
  begin
    root lhipjoint rhipjoint lowerback
    lhipjoint lfemur
    lfemur ltibia
    ltibia lfoot
    lfoot ltoes
    rhipjoint rfemur
    rfemur rtibia
    rtibia rfoot
    rfoot rtoes
    lowerback upperback
    upperback thorax
    thorax lowerneck lclavicle rclavicle
    lowerneck upperneck
    upperneck head
    lclavicle lhumerus
    lhumerus lradius
    lradius lwrist
    lwrist lhand lthumb
    lhand lfingers
    rclavicle rhumerus
    rhumerus rradius
    rradius rwrist
    rwrist rhand rthumb
    rhand rfingers
end

#!OML:ASF C:\KaitlinTest1\Natural Motions\Nikki\Session 2\Nikki.ASF
:FULLY-SPECIFIED
:DEGREES
950
root -10.6877 16.2782 6.23286 -149.891 75.7175 -162.506
lowerback -3.86609 2.57574 -1.13577
upperback -2.42356 3.55496 -3.10285
thorax -0.195374 1.80678 -2.41743
lowerneck -0.33747 -16.1299 -14.3457
upperneck 10.3901 45.5094 3.99763
head 67.8624 71.4593 -135.297
rclavicle -5.56597e-015 7.95139e-015
rhumerus -26.6824 -7.39546 -84.7121
rradius 17.1615
rwrist 20.6566
rhand -30.365 -0.176151
rfingers 7.12502
rthumb -3.66995 -30.1243
lclavicle -5.56597e-015 7.95139e-015
lhumerus -53.2978 18.328 63.5024
lradius 29.6519
lwrist -24.5501
lhand -40.303 2.03134
lfingers 7.12502
lthumb -13.2599 31.5896
rfemur -31.1689 -17.2126 28.8867
rtibia 34.6927
rfoot -13.8566 6.50257
rtoes 4.53229e-014
lfemur -8.71203 3.07543 -5.12503
ltibia 35.8684
lfoot -1.71852 -0.493021
ltoes 6.36111e-014
951
root -10.8108 16.2504 6.20285 -149.714 75.5213 -162.526
lowerback -3.9762 2.35899 -0.986198
upperback -2.46208 3.26099 -2.95584
thorax -0.183672 1.65811 -2.35717
lowerneck -0.346069 -15.9595 -14.486
upperneck 10.3349 45.4835 3.95699
head 68.852 71.7561 -134.252
rclavicle 4.57205e-015 -2.22639e-014
rhumerus -27.351 -7.86211 -83.9336
rradius 17.3115
rwrist 20.3953
rhand -30.2648 -0.27118
rfingers 7.12502
rthumb -3.57313 -30.221
lclavicle 4.57205e-015 -2.22639e-014
lhumerus -52.8521 18.2188 63.9602
lradius 30.121
lwrist -24.1996
lhand -40.565 1.58068
lfingers 7.12502
lthumb -13.5124 31.1223
rfemur -32.1661 -17.5395 29.0171
rtibia 35.1882
rfoot -13.8236 6.66817
rtoes -3.18055e-015
lfemur -6.976 3.52771 -4.99483
ltibia 32.5392
lfoot -2.51114 -0.947209
ltoes -1.27222e-013
952
root -10.9365 16.2246 6.1683 -149.279 75.525 -162.35
lowerback -4.19181 2.11097 -0.906487
upperback -2.38814 2.92898 -2.72766
thorax -0.00654361 1.49035 -2.16929
lowerneck -0.637204 -15.6801 -14.7768
upperneck 9.99598 45.0953 3.64647
head 68.237 71.8659 -134.705
rclavicle 7.13637e-014 -3.81667e-014
rhumerus -27.5219 -8.12777 -83.1798
rradius 17.2243
rwrist 20.1388
rhand -30.2956 -0.391463
rfingers 7.12502
rthumb -3.60287 -30.3408
lclavicle 7.13637e-014 -3.81667e-014
lhumerus -52.3053 18.2317 64.7484
lradius 30.7923
lwrist -23.4498
lhand -40.5225 1.69616
lfingers 7.12502
lthumb -13.4714 31.2405
rfemur -33.1605 -17.538 29.0275
rtibia 35.5778
rfoot -13.578 6.76679
rtoes -8.74653e-014
lfemur -5.24236 3.43594 -5.11632
ltibia 29.0011
lfoot -2.98679 -0.716157
ltoes 2.44903e-013
953
root -11.0588 16.2096 6.13147 -148.583 75.5492 -161.828
lowerback -4.29905 2.01667 -0.652815
upperback -2.40462 2.79359 -2.61283
thorax 0.0384071 1.42009 -2.19511
lowerneck -0.718711 -15.4723 -14.8998
upperneck 10.0088 45.2656 3.74528
head 69.9537 72.4114 -133.155
rclavicle 2.62396e-014 4.13472e-014
rhumerus -28.0542 -8.17416 -82.5542
rradius 17.295
rwrist 19.3821
rhand -30.3358 -0.559009
rfingers 7.12502
rthumb -3.64179 -30.5076
lclavicle 2.62396e-014 4.13472e-014
lhumerus -51.7213 17.5379 65.7212
lradius 31.5209
lwrist -22.479
lhand -40.8491 1.96148
lfingers 7.12502
lthumb -13.7862 31.4847
rfemur -33.9802 -17.6202 29.1369
rtibia 35.8519
rfoot -13.4702 6.93506
rtoes -1.11319e-014
lfemur -3.29285 2.73237 -5.31934
ltibia 25.0614
lfoot -2.9788 0.176141
ltoes 5.725e-014
954
root -11.1874 16.1983 6.09514 -147.892 75.5201 -161.423
lowerback -4.50985 1.91339 -0.355264
upperback -2.42931 2.64799 -2.55689
thorax 0.136264 1.34519 -2.30343
lowerneck -0.711983 -15.3908 -14.8671
upperneck 9.91149 45.0079 3.71685
head 70.8415 72.6548 -132.179
rclavicle 3.18055e-015 -2.54444e-014
rhumerus -28.4621 -10.3675 -81.2931
rradius 17.0579
rwrist 20.9409
rhand -30.0273 -0.400393
rfingers 7.12502
rthumb -3.34381 -30.3539
lclavicle 3.18055e-015 -2.54444e-014
lhumerus -51.0483 17.0801 66.3517
lradius 32.0453
lwrist -21.8611
lhand -40.7651 1.82285
lfingers 7.12502
lthumb -13.7053 31.3515
rfemur -34.8761 -17.585 29.2459
rtibia 36.015
rfoot -13.26 6.93173
rtoes 7.31528e-014
lfemur -1.35096 1.67475 -5.60571
ltibia 20.5738
lfoot -3.01444 1.61694
ltoes -4.77083e-014
955
root -11.3189 16.1893 6.0563 -147.652 75.53 -161.481
lowerback -4.21663 1.73872 -0.310712
upperback -2.83135 2.40649 -2.40923
thorax -0.453753 1.22416 -2.20715
lowerneck -0.292435 -15.0891 -15.1533
upperneck 10.1997 45.4981 3.97223
head 73.7747 73.3108 -129.397
rclavicle -1.76918e-014 -4.6118e-014
rhumerus -29.5515 -10.5645 -80.4016
rradius 17.1899
rwrist 20.6003
rhand -29.9174 -0.486026
rfingers 7.12502
rthumb -3.23768 -30.4412
lclavicle -1.76918e-014 -4.6118e-014
lhumerus -51.1442 16.4392 66.9879
lradius 32.7762
lwrist -21.1952
lhand -40.409 2.12802
lfingers 7.12502
lthumb -13.362 31.6796
rfemur -35.7392 -17.3708 29.1151
rtibia 36.0644
rfoot -12.9258 6.7901
rtoes -6.32135e-014
lfemur 0.828107 0.581653 -6.04767
ltibia 15.3345
lfoot -2.82485 3.13205
ltoes 1.24042e-013
956
root -11.4436 16.1735 6.02462 -147.659 75.3087 -161.505
lowerback -4.10252 1.55555 -0.211168
upperback -2.79985 2.15404 -2.26966
thorax -0.495736 1.09577 -2.13223
lowerneck -0.279789 -14.9782 -15.1604
upperneck 10.1466 45.3684 3.99107
head 75.26 73.6296 -127.893
rclavicle 3.95581e-014 -1.90833e-014
rhumerus -30.0779 -10.9153 -79.6619
rradius 17.287
rwrist 20.3503
rhand -29.9004 -0.546444
rfingers 7.12502
rthumb -3.22126 -30.5019
lclavicle 3.95581e-014 -1.90833e-014
lhumerus -50.631 15.6269 67.8953
lradius 33.5607
lwrist -20.4599
lhand -40.6379 2.25696
lfingers 7.12502
lthumb -13.5827 31.7939
rfemur -36.1357 -17.2593 29.0144
rtibia 36.0117
rfoot -12.7829 6.50087
rtoes -5.24792e-014
lfemur 3.79874 0.672084 -6.20573
ltibia 8.63053
lfoot -1.59179 3.16336
ltoes 6.04305e-014
